<svg width="414" height="168" viewBox="0 0 414 168" fill="none" xmlns="http://www.w3.org/2000/svg">
<path d="M135.596 134.631C137.546 122.613 129.385 111.289 117.366 109.338C105.348 107.388 94.0239 115.55 92.0734 127.568C90.1229 139.586 98.2845 150.91 110.303 152.861C122.321 154.811 133.645 146.65 135.596 134.631Z" fill="#CB00FF"/>
<path d="M201.003 92.2201C204.469 89.0651 204.721 83.6976 201.566 80.2313C198.411 76.7651 193.044 76.5128 189.577 79.6678C186.111 82.8228 185.859 88.1903 189.014 91.6565C192.169 95.1228 197.536 95.3751 201.003 92.2201Z" fill="#FFD464"/>
<path d="M246.433 170.258C246.433 185.369 234.117 197.685 219.006 197.685C203.895 197.685 191.578 185.369 191.578 170.258C191.578 155.147 203.895 142.83 219.006 142.83C234.22 142.83 246.433 155.147 246.433 170.258Z" fill="#FFD464"/>
<path d="M335.014 120.412C345.893 115.906 351.059 103.434 346.553 92.5543C342.046 81.6752 329.574 76.509 318.695 81.0154C307.815 85.5218 302.649 97.9943 307.156 108.873C311.662 119.753 324.135 124.919 335.014 120.412Z" fill="#CB00FF"/>
<path d="M368.815 166.147C373.077 164.061 374.842 158.916 372.756 154.654C370.671 150.392 365.526 148.628 361.264 150.713C357.002 152.798 355.238 157.943 357.323 162.205C359.408 166.467 364.553 168.232 368.815 166.147Z" fill="#E33900"/>
<path d="M366.494 69.345C370.895 69.345 374.463 65.7769 374.463 61.3755C374.463 56.9741 370.895 53.406 366.494 53.406C362.092 53.406 358.524 56.9741 358.524 61.3755C358.524 65.7769 362.092 69.345 366.494 69.345Z" fill="#E33900"/>
<path d="M271.687 74.934C253.264 74.934 238.361 59.9265 238.361 41.607C238.361 23.184 253.368 8.28 271.687 8.28C290.11 8.28 305.014 23.2875 305.014 41.607C305.014 60.03 290.007 74.934 271.687 74.934ZM271.687 14.49C256.68 14.49 244.571 26.703 244.571 41.607C244.571 56.6145 256.783 68.724 271.687 68.724C286.695 68.724 298.804 56.511 298.804 41.607C298.804 26.703 286.591 14.49 271.687 14.49Z" fill="#FFD464"/>
<path d="M163.633 34.569C163.633 38.3985 160.528 41.607 156.595 41.607C152.766 41.607 149.557 38.502 149.557 34.569C149.557 30.7395 152.662 27.531 156.595 27.531C160.528 27.6345 163.633 30.7395 163.633 34.569Z" fill="#009FD1"/>
<path d="M72.864 67.689C61.065 67.689 51.4395 58.0635 51.4395 46.2645C51.4395 34.4655 61.065 24.84 72.864 24.84C84.663 24.84 94.2885 34.4655 94.2885 46.2645C94.2885 58.0635 84.7665 67.689 72.864 67.689ZM72.864 31.05C64.4805 31.05 57.6495 37.881 57.6495 46.2645C57.6495 54.648 64.4805 61.479 72.864 61.479C81.2475 61.479 88.0785 54.648 88.0785 46.2645C88.0785 37.881 81.2475 31.05 72.864 31.05Z" fill="#FFD464"/>
<path d="M184.437 131.031C184.437 137.241 179.469 142.209 173.259 142.209C167.049 142.209 162.081 137.241 162.081 131.031C162.081 124.821 167.049 119.853 173.259 119.853C179.365 119.853 184.437 124.924 184.437 131.031Z" fill="#FFD464"/>
<path d="M37.674 192.096C26.082 192.096 16.56 182.677 16.56 170.982C16.56 159.286 25.9785 149.868 37.674 149.868C49.266 149.868 58.788 159.286 58.788 170.982C58.788 182.677 49.3695 192.096 37.674 192.096ZM37.674 156.078C29.4975 156.078 22.77 162.805 22.77 170.982C22.77 179.158 29.4975 185.886 37.674 185.886C45.8505 185.886 52.578 179.158 52.578 170.982C52.578 162.805 45.954 156.078 37.674 156.078Z" fill="#FFD464"/>
<path d="M380.259 133.308C372.6 133.308 366.286 126.995 366.286 119.336C366.286 111.677 372.6 105.363 380.259 105.363C387.918 105.363 394.231 111.677 394.231 119.336C394.231 126.995 387.918 133.308 380.259 133.308ZM380.259 111.677C376.015 111.677 372.496 115.196 372.496 119.439C372.496 123.683 376.015 127.202 380.259 127.202C384.502 127.202 388.021 123.683 388.021 119.439C387.918 115.092 384.502 111.677 380.259 111.677Z" fill="#009FD1"/>
<path d="M336.271 36.5355C336.271 40.0545 333.373 42.9525 329.854 42.9525C326.336 42.9525 323.438 40.0545 323.438 36.5355C323.438 33.0165 326.336 30.1185 329.854 30.1185C333.373 30.1185 336.271 33.0165 336.271 36.5355Z" fill="#FFD464"/>
<path d="M294.457 118.611C294.457 123.372 290.628 127.202 285.867 127.202C281.106 127.202 277.276 123.372 277.276 118.611C277.276 113.85 281.106 110.021 285.867 110.021C290.628 110.021 294.457 113.85 294.457 118.611Z" fill="#FFD464"/>
<path d="M242.086 108.882C242.086 115.713 236.601 121.198 229.77 121.198C222.939 121.198 217.453 115.713 217.453 108.882C217.453 102.051 222.939 96.5655 229.77 96.5655C236.601 96.5655 242.086 102.051 242.086 108.882Z" fill="#FFD464"/>
<path d="M211.14 21.4245C211.14 25.1505 208.138 28.152 204.412 28.152C200.686 28.152 197.685 25.1505 197.685 21.4245C197.685 17.6985 200.686 14.697 204.412 14.697C208.138 14.697 211.14 17.6985 211.14 21.4245Z" fill="black"/>
<path d="M161.932 84.717C165.448 81.2006 165.448 75.4993 161.932 71.9829C158.415 68.4664 152.714 68.4664 149.197 71.9829C145.681 75.4993 145.681 81.2006 149.197 84.717C152.714 88.2335 158.415 88.2335 161.932 84.717Z" fill="#FFD464"/>
<path d="M57.4425 101.844C57.4425 106.708 53.5095 110.745 48.5415 110.745C43.677 110.745 39.6405 106.812 39.6405 101.844C39.6405 96.9795 43.5735 92.943 48.5415 92.943C53.406 93.0465 57.4425 96.9795 57.4425 101.844Z" fill="#009FD1"/>
<path d="M36.018 52.0605C36.018 54.441 34.0515 56.304 31.7745 56.304C29.394 56.304 27.531 54.3375 27.531 52.0605C27.531 49.68 29.4975 47.817 31.7745 47.817C34.155 47.7135 36.018 49.68 36.018 52.0605Z" fill="#E33900"/>
<path d="M119.957 28.4625C122.243 28.4625 124.097 26.609 124.097 24.3225C124.097 22.036 122.243 20.1825 119.957 20.1825C117.67 20.1825 115.817 22.036 115.817 24.3225C115.817 26.609 117.67 28.4625 119.957 28.4625Z" fill="#CB00FF"/>
<path d="M368.667 24.3225C368.667 26.3925 367.011 27.945 365.044 27.945C362.974 27.945 361.422 26.289 361.422 24.3225C361.422 22.2525 363.078 20.7 365.044 20.7C367.011 20.7 368.667 22.356 368.667 24.3225Z" fill="#CB00FF"/>
<path fill-rule="evenodd" clip-rule="evenodd" d="M326.335 210.105C316.503 191.475 301.806 179.262 281.83 173.362C275.413 171.499 268.686 170.775 262.062 169.429C259.992 164.772 258.232 159.597 255.645 155.146C247.779 142.002 236.394 132.687 223.146 125.131C206.896 115.92 189.715 114.678 172.741 120.577C147.28 129.375 130.513 147.177 124.303 173.983C123.993 175.329 123.579 176.674 123.268 177.916C119.853 178.33 116.851 178.434 113.85 179.055C88.182 184.644 73.5885 201.721 66.033 225.837C62.514 237.118 63.4455 248.089 69.345 258.439C77.9355 273.447 91.08 282.141 107.743 285.142C116.955 286.798 126.166 288.351 135.688 287.523C143.554 286.798 151.627 287.833 159.597 287.73C184.126 287.626 208.656 287.419 233.185 287.005C245.191 286.798 257.301 286.798 269.307 285.764C281.727 284.729 293.94 281.934 305.118 275.931C327.06 264.132 339.066 234.427 326.335 210.105Z" fill="black"/>
<path d="M212.071 39.33C212.278 39.537 212.485 39.744 212.692 39.951C211.347 42.228 210.105 44.6085 208.759 46.8855C206.068 51.543 203.274 56.2005 200.79 60.858C200.169 61.9965 199.444 62.4105 198.202 62.514C196.236 62.6175 194.58 62.721 193.131 62.928C192.821 62.928 192.406 63.0315 192.096 63.0315C191.579 63.135 191.061 63.135 190.647 63.2385C190.233 63.342 189.819 63.342 189.405 63.4455C189.198 63.4455 188.887 63.549 188.68 63.549C187.852 63.6525 187.025 63.8595 186.404 63.963C184.644 64.377 183.298 64.8945 181.642 65.412C180.711 65.7225 179.676 66.033 178.434 66.447C177.916 66.5505 177.399 66.7575 176.881 66.861C176.571 66.9645 176.26 67.068 175.95 67.068C175.639 67.1715 175.329 67.275 175.019 67.275C174.708 67.3785 174.294 67.482 173.984 67.482C173.777 67.482 173.673 67.5855 173.466 67.5855C174.087 66.1365 174.294 65.3085 174.708 64.584C177.709 59.9265 180.711 55.3725 183.712 50.8185C185.265 48.3345 187.335 46.6785 190.336 46.0575C191.785 45.747 193.027 45.0225 194.476 44.6085C197.271 43.7805 200.065 42.9525 202.756 42.1245C204.309 41.7105 205.758 41.2965 207.31 40.8825C208.759 40.365 210.415 39.8475 212.071 39.33Z" fill="#FFD464"/>
<path d="M213.21 135.068C212.692 136.206 212.071 137.345 211.243 138.897C210.622 137.966 210.312 137.552 210.001 137.034C207.103 131.445 204.309 125.856 201.307 120.371C199.962 117.887 200.065 115.92 201.721 113.643C206.379 107.226 210.829 100.602 213.624 93.0465C213.934 92.322 214.452 91.701 214.762 91.08C214.969 90.5625 215.487 90.045 215.383 89.631C214.245 85.698 213.003 82.386 211.761 79.695C211.45 79.074 211.14 78.3495 210.829 77.7285C210.622 77.418 210.519 77.004 210.312 76.6935C209.07 74.313 207.931 72.3465 207 70.587C206.896 70.38 206.793 70.173 206.586 69.966V69.8625C204.516 66.1365 203.481 63.549 205.033 60.3405C205.344 59.7195 205.758 58.995 206.275 58.2705C208.759 54.9585 210.726 51.2325 213.106 47.817C214.245 46.161 215.797 44.8155 217.453 43.056C218.074 44.1945 218.695 45.126 219.109 46.0575C221.49 51.6465 223.87 57.2355 226.251 62.721C229.045 69.138 232.047 75.555 234.945 82.0755C235.048 82.2825 235.152 82.4895 235.255 82.6965C237.636 86.733 237.843 90.459 235.048 94.806C229.252 103.914 224.077 113.54 218.799 123.062C216.729 126.788 215.073 130.928 213.21 135.068Z" fill="#009FD1"/>
<path d="M193.234 88.596C198.202 87.2505 203.067 85.8015 208.138 84.3525C205.861 78.453 203.584 72.7605 201.204 66.7575C201.1 66.7575 200.893 66.7575 200.583 66.861C200.376 66.861 200.065 66.9645 199.858 66.9645C198.202 67.275 195.304 67.896 191.889 68.724C191.578 68.8275 191.164 68.8275 190.854 68.931C187.438 69.759 183.712 70.587 180.297 71.415C179.883 71.5185 179.365 71.622 178.951 71.7255C177.813 72.036 176.778 72.243 175.743 72.5535C174.915 72.7605 174.19 72.9675 173.569 73.1745C173.362 73.1745 173.259 73.278 173.052 73.278C171.913 73.5885 170.982 73.899 170.257 74.106C170.05 74.2095 169.843 74.2095 169.74 74.313C169.429 74.4165 169.222 74.52 169.119 74.6235C172.224 80.523 175.329 86.4225 178.434 92.115C183.505 90.9765 188.37 89.838 193.234 88.596ZM175.743 139C177.813 143.451 180.09 144.589 185.058 143.865C187.128 143.554 189.301 143.347 191.371 143.037C196.236 142.312 201.204 142.416 206.068 140.035C205.965 139.828 205.861 139.518 205.758 139.207C202.86 132.894 199.755 126.684 195.615 121.095C195.201 120.474 194.166 119.853 193.441 119.853C190.957 119.956 188.473 119.956 186.093 120.474C181.021 121.612 176.053 122.751 170.878 122.026C170.257 121.923 169.533 122.13 168.291 122.233C170.982 128.236 173.259 133.618 175.743 139ZM201.307 120.267C204.309 125.752 207.103 131.341 210.001 136.93C210.208 137.448 210.622 137.862 211.243 138.793C212.071 137.241 212.692 136.206 213.21 134.964C215.073 130.927 216.729 126.684 218.902 122.854C224.181 113.332 229.356 103.707 235.152 94.599C237.946 90.252 237.739 86.526 235.359 82.4895C235.255 82.2825 235.152 82.0755 235.048 81.8685C232.15 75.4515 229.252 69.0345 226.354 62.514C223.87 57.0285 221.593 51.336 219.213 45.8505C218.799 44.919 218.178 43.9875 217.557 42.849C215.901 44.712 214.348 46.0575 213.21 47.61C210.829 51.0255 208.863 54.648 206.379 58.0635C205.861 58.788 205.447 59.409 205.137 60.1335C203.584 63.342 204.619 65.9295 206.689 69.6555V69.759C206.793 69.966 206.896 70.173 207.103 70.38C208.035 72.1395 209.173 74.106 210.415 76.4865C210.622 76.797 210.726 77.1075 210.933 77.5215C211.243 78.1425 211.554 78.7635 211.864 79.488C213.106 82.2825 214.348 85.491 215.487 89.424C215.59 89.838 215.176 90.459 214.866 90.873C214.555 91.5975 213.934 92.115 213.727 92.8395C210.933 100.395 206.482 106.915 201.825 113.436C200.065 115.816 199.962 117.783 201.307 120.267ZM241.983 82.179C243.846 86.112 243.742 90.459 241.776 94.392C240.534 96.9795 238.878 99.4635 237.429 102.051C230.908 113.436 224.491 124.821 217.971 136.206C216.832 138.276 215.383 140.139 214.141 142.105C212.796 144.072 210.829 144.9 208.449 145.21C200.79 146.038 193.131 146.97 185.472 147.901C184.023 148.108 182.574 148.212 181.125 148.108C176.985 148.005 174.087 146.142 172.327 142.105C169.947 136.827 167.256 131.652 164.461 126.477C163.116 123.993 162.702 121.198 162.495 118.507C162.391 117.162 163.426 115.609 164.151 114.264C167.256 108.675 170.568 103.293 173.673 97.704C174.087 96.876 174.087 95.427 173.673 94.599C171.085 89.424 168.291 84.249 165.703 79.074C164.772 77.211 164.151 75.141 163.737 73.071C163.53 72.243 163.633 70.794 164.254 70.2765C167.256 67.482 168.291 63.6525 170.464 60.3405C173.673 55.476 176.674 50.508 179.779 45.6435C181.435 43.884 183.298 42.849 185.575 42.3315C188.37 41.607 191.164 40.6755 193.959 39.8475C196.65 39.123 199.341 38.6055 202.032 37.881C204.309 37.26 206.482 36.5355 208.759 35.811C209.794 35.5005 210.829 34.983 211.968 34.776C215.176 34.362 218.074 34.4655 219.834 38.088C222.007 42.642 224.802 46.8855 226.975 51.336C232.047 61.5825 237.118 71.829 241.983 82.179ZM212.692 39.951C212.485 39.744 212.278 39.537 212.071 39.33C210.415 39.8475 208.656 40.365 207 40.8825C205.447 41.2965 203.998 41.7105 202.446 42.1245C199.651 42.9525 196.857 43.677 194.166 44.6085C192.82 45.0225 191.475 45.8505 190.026 46.0575C187.024 46.6785 185.058 48.3345 183.402 50.8185C180.4 55.476 177.399 60.03 174.397 64.584C173.88 65.3085 173.673 66.24 173.155 67.5855C173.362 67.5855 173.569 67.482 173.673 67.482C174.087 67.3785 174.397 67.275 174.708 67.275C175.018 67.1715 175.329 67.068 175.639 67.068C175.95 66.9645 176.26 66.861 176.571 66.861C177.192 66.7575 177.709 66.5505 178.123 66.447C179.365 66.033 180.4 65.7225 181.332 65.412C182.988 64.8945 184.333 64.377 186.093 63.963C186.817 63.8595 187.542 63.6525 188.37 63.549C188.577 63.549 188.887 63.4455 189.094 63.4455C189.508 63.342 189.922 63.342 190.336 63.2385C190.75 63.135 191.268 63.135 191.785 63.0315C192.096 63.0315 192.406 62.928 192.82 62.928C194.269 62.8245 195.925 62.721 197.892 62.514C199.134 62.4105 199.858 62.1 200.479 60.858C203.067 56.2005 205.758 51.543 208.449 46.8855C210.105 44.6085 211.45 42.3315 212.692 39.951ZM208.449 94.806C208.966 93.978 209.38 93.0465 209.898 92.0115C202.032 91.908 194.89 93.15 187.749 94.599C185.058 95.1165 183.298 96.3585 181.953 98.6355C179.883 102.258 177.606 105.673 175.432 109.192C173.983 111.573 172.638 113.953 171.189 116.541C172.017 116.644 172.327 116.851 172.638 116.851C177.088 116.023 181.642 115.195 186.093 114.16C186.507 114.057 198.099 110.331 198.306 110.02C201.721 104.845 205.137 99.8775 208.449 94.806Z" fill="black"/>
<path d="M208.138 84.3525C203.067 85.8015 198.099 87.2505 193.234 88.596C188.37 89.838 183.505 90.9765 178.33 92.2185C175.329 86.526 172.224 80.6265 169.016 74.727C169.119 74.6235 169.326 74.52 169.636 74.4165C169.74 74.313 169.947 74.313 170.154 74.2095C170.878 74.0025 171.81 73.692 172.949 73.3815C173.156 73.3815 173.259 73.278 173.466 73.278C174.191 73.071 174.915 72.864 175.639 72.657C176.674 72.45 177.709 72.1395 178.848 71.829C179.262 71.7255 179.78 71.622 180.194 71.5185C183.609 70.6905 187.335 69.759 190.75 69.0345C191.061 68.931 191.475 68.8275 191.785 68.8275C195.201 67.9995 198.099 67.3785 199.755 67.068C200.065 66.9645 200.272 66.9645 200.479 66.9645C200.79 66.861 200.997 66.861 201.1 66.861C203.481 72.7605 205.758 78.453 208.138 84.3525Z" fill="#CB00FF"/>
<path d="M205.137 60.1335C203.584 63.342 204.619 65.9295 206.689 69.6555C204.619 65.9295 203.584 63.4455 205.137 60.1335Z" fill="white"/>
<path d="M206.069 140.139C201.204 142.519 196.236 142.416 191.372 143.14C189.302 143.451 187.128 143.658 185.058 143.968C180.09 144.693 177.813 143.554 175.743 139.104C173.259 133.722 170.879 128.34 168.291 122.44C169.533 122.337 170.154 122.13 170.879 122.233C176.054 122.958 181.125 121.819 186.093 120.681C188.474 120.163 190.958 120.06 193.442 120.06C194.166 120.06 195.201 120.681 195.615 121.302C199.755 126.891 202.86 133.101 205.758 139.414C205.965 139.621 205.965 139.932 206.069 140.139Z" fill="#CB00FF"/>
<path d="M199.755 66.9644C200.066 66.861 200.272 66.861 200.479 66.861C200.272 66.861 200.066 66.9644 199.755 66.9644Z" fill="white"/>
<path d="M193.027 62.928C192.717 62.928 192.303 63.0314 191.992 63.0314C192.406 63.0314 192.717 62.928 193.027 62.928Z" fill="white"/>
<path d="M190.647 63.135C190.233 63.2385 189.819 63.2385 189.405 63.3419C189.715 63.3419 190.129 63.2385 190.647 63.135Z" fill="white"/>
<path d="M189.302 63.342C189.095 63.342 188.784 63.4455 188.577 63.4455C188.784 63.4455 189.095 63.342 189.302 63.342Z" fill="white"/>
<path d="M188.577 63.4455C187.749 63.5489 186.921 63.7558 186.3 63.8593C186.921 63.7558 187.749 63.6524 188.577 63.4455Z" fill="white"/>
<path d="M186.196 63.963C184.437 64.3768 183.091 64.894 181.435 65.4113C183.091 64.7906 184.437 64.3768 186.196 63.963Z" fill="white"/>
<path d="M178.227 66.343C179.469 65.9292 180.504 65.6188 181.436 65.3085C180.504 65.7223 179.469 66.0326 178.227 66.343Z" fill="white"/>
<path d="M176.674 66.8608C177.295 66.6539 177.813 66.5504 178.227 66.447C177.813 66.5504 177.192 66.6539 176.674 66.8608Z" fill="white"/>
<path d="M174.811 67.2749C175.122 67.1714 175.432 67.068 175.743 67.068C175.432 67.1714 175.122 67.1714 174.811 67.2749Z" fill="white"/>
<path d="M173.776 67.5854C174.19 67.4819 174.501 67.3785 174.812 67.3785C174.501 67.3785 174.087 67.4819 173.776 67.5854Z" fill="white"/>
<path d="M172.741 116.748C172.431 116.852 172.12 116.645 171.292 116.438C172.741 113.85 174.087 111.47 175.536 109.089C177.709 105.57 179.986 102.155 182.056 98.532C183.402 96.255 185.058 95.1165 187.852 94.4955C194.994 93.0465 202.135 91.8045 210.001 91.908C209.484 93.0465 209.07 93.978 208.552 94.7025C205.24 99.774 201.825 104.742 198.409 109.71C198.202 110.021 186.61 113.85 186.196 113.85C181.746 115.092 177.192 115.92 172.741 116.748Z" fill="#FFD464"/>
<path d="M235.359 82.4895C235.255 82.2825 235.152 82.0755 235.048 81.8685C232.15 75.4515 229.252 69.0345 226.354 62.514C223.87 57.0285 221.593 51.336 219.213 45.8505C218.902 45.0225 218.385 44.298 217.867 43.3665C217.764 43.47 217.764 43.677 217.66 43.7805C217.039 44.8155 219.834 49.9905 220.144 51.2325C220.869 53.7165 221.697 56.304 222.421 58.788C223.974 63.6525 226.147 68.31 227.7 73.1745C230.598 82.4895 232.771 90.873 229.045 100.188C225.319 109.399 220.248 118.197 215.797 127.201C214.038 130.824 212.278 134.446 210.726 138.172C210.829 138.379 210.933 138.483 211.14 138.793C211.968 137.241 212.589 136.206 213.106 134.964C214.969 130.927 216.625 126.684 218.799 122.854C224.077 113.332 229.252 103.707 235.048 94.599C237.946 90.252 237.739 86.6295 235.359 82.4895Z" fill="#FFD464"/>
<path d="M99.0495 147.281C97.497 147.281 96.1515 146.039 96.1515 144.383V119.749C96.1515 118.197 97.3935 116.852 99.0495 116.852C100.602 116.852 101.947 118.093 101.947 119.749V144.383C101.844 145.935 100.602 147.281 99.0495 147.281Z" fill="black"/>
<path d="M78.453 125.132C76.9005 125.132 75.555 123.89 75.555 122.234V43.3665C75.555 41.814 76.797 40.4685 78.453 40.4685C80.0055 40.4685 81.351 41.7105 81.351 43.3665V122.234C81.351 123.89 80.0055 125.132 78.453 125.132Z" fill="black"/>
<path d="M269.307 140.036C262.89 140.036 257.715 134.861 257.715 128.444C257.715 122.027 262.89 116.852 269.307 116.852C275.724 116.852 280.899 122.027 280.899 128.444C280.899 134.861 275.621 140.036 269.307 140.036ZM269.307 122.751C266.099 122.751 263.511 125.339 263.511 128.547C263.511 131.756 266.099 134.343 269.307 134.343C272.516 134.343 275.103 131.756 275.103 128.547C275.103 125.339 272.516 122.751 269.307 122.751Z" fill="black"/>
<path d="M269.307 109.813C262.89 109.813 257.715 104.639 257.715 98.2215C257.715 91.8045 262.89 86.6295 269.307 86.6295C275.724 86.6295 280.899 91.8045 280.899 98.2215C280.899 104.535 275.621 109.813 269.307 109.813ZM269.307 92.4255C266.099 92.4255 263.511 95.013 263.511 98.2215C263.511 101.43 266.099 104.017 269.307 104.017C272.516 104.017 275.103 101.43 275.103 98.2215C275.103 95.013 272.516 92.4255 269.307 92.4255Z" fill="black"/>
<path d="M269.307 79.488C262.89 79.488 257.715 74.313 257.715 67.896C257.715 61.479 262.89 56.304 269.307 56.304C275.724 56.304 280.899 61.479 280.899 67.896C280.899 74.313 275.621 79.488 269.307 79.488ZM269.307 62.1C266.099 62.1 263.511 64.6875 263.511 67.896C263.511 71.1045 266.099 73.692 269.307 73.692C272.516 73.692 275.103 71.1045 275.103 67.896C275.103 64.6875 272.516 62.1 269.307 62.1Z" fill="black"/>
<path d="M150.179 86.6295C151.11 86.6295 152.042 86.526 153.077 86.6295C155.147 86.8365 155.871 88.182 154.94 90.045C152.559 94.599 150.075 99.153 147.695 103.707C146.039 106.915 144.486 110.124 142.83 113.229C140.864 116.851 138.794 120.474 136.724 123.993C135.275 126.684 133.722 129.271 132.273 131.962C131.859 132.583 131.756 133.722 130.617 133.515C129.582 133.308 129.168 132.376 129.168 131.341C129.065 127.098 128.961 122.854 128.858 118.611C128.858 115.299 129.065 111.987 128.858 108.675C128.754 104.845 128.34 101.016 128.133 96.876C123.89 96.876 119.957 96.5655 115.92 97.083C115.092 97.1865 114.264 97.29 113.54 97.1865C111.884 96.9795 111.366 95.9445 112.401 94.4955C112.815 93.978 113.126 93.357 113.643 92.943C125.132 71.3115 131.963 61.272 136.31 53.9235C136.931 52.8885 137.655 51.8535 138.483 51.0255C139.622 49.9905 140.967 50.6115 141.071 52.164C141.278 55.7865 141.381 59.3055 141.381 62.928C141.485 68.103 141.381 80.523 141.381 85.8015C141.381 86.0085 141.485 86.2155 141.588 86.733C144.59 86.6295 147.384 86.6295 150.179 86.6295ZM140.139 91.287C137.138 91.287 136.206 90.1485 136.413 87.147C136.724 82.179 137.034 69.966 137.345 64.998C137.345 64.4805 137.345 63.8595 137.345 63.2385C137.138 63.135 136.931 63.0315 136.827 62.8245C136.724 63.135 136.724 63.4455 136.62 63.6525C132.066 69.966 129.479 77.832 122.441 89.424C121.82 90.045 121.302 90.873 121.923 91.5975C122.337 92.115 123.165 92.4255 123.786 92.4255C126.167 92.4255 128.651 92.2185 131.031 92.115C132.687 93.4605 132.894 95.3235 132.998 97.3935C133.101 99.2565 133.205 101.119 133.412 103.086C133.826 108.054 134.136 113.022 134.55 118.093C134.757 118.197 134.964 118.197 135.068 118.3C135.378 117.679 135.792 117.058 136.103 116.437C138.587 111.366 141.071 106.191 143.658 101.119C144.797 98.8425 145.935 96.462 146.97 94.185C147.695 92.736 147.384 92.0115 145.832 91.701C145.211 91.5975 144.59 91.494 143.969 91.494C142.727 91.1835 141.381 91.287 140.139 91.287Z" fill="black"/>
<path d="M140.139 91.287C141.381 91.287 142.727 91.287 143.969 91.287C144.59 91.287 145.211 91.287 145.832 91.494C147.384 91.908 147.695 92.529 146.97 93.978C145.832 96.3585 144.797 98.6355 143.658 100.912C141.174 105.984 138.69 111.159 136.103 116.23C135.792 116.851 135.378 117.472 135.068 118.093C134.861 117.99 134.654 117.99 134.55 117.886C134.136 112.918 133.826 107.95 133.412 102.879C133.308 101.016 133.101 99.153 132.998 97.1865C132.894 95.22 132.687 93.2535 131.031 91.908C128.651 92.0115 126.27 92.2185 123.786 92.2185C123.165 92.2185 122.234 91.908 121.923 91.3905C121.302 90.666 121.82 89.838 122.441 89.217C129.375 77.625 131.963 69.759 136.62 63.4455C136.827 63.2385 136.827 62.928 136.827 62.6175C137.034 62.721 137.241 62.8245 137.345 63.0315C137.345 63.6525 137.345 64.17 137.345 64.791C137.034 69.759 136.724 81.972 136.413 86.94C136.206 90.045 137.138 91.1835 140.139 91.287Z" fill="#009FD1"/>
<path d="M136.413 68.31C136.724 67.1715 137.034 66.033 137.345 64.8945C137.345 64.377 137.345 63.756 137.345 63.2385C137.138 63.135 136.931 63.0315 136.827 62.8245C136.724 63.135 136.724 63.4455 136.62 63.6525C132.066 69.966 129.479 77.832 122.441 89.424C121.82 90.045 121.302 90.873 121.923 91.5975C122.337 92.115 123.165 92.4255 123.786 92.4255C126.063 92.4255 128.444 92.322 130.721 92.2185C132.48 84.1455 134.24 76.176 136.413 68.31Z" fill="#FFD464"/>
<path d="M128.961 201.929C127.823 202.653 126.891 202.55 125.96 202.032C125.028 201.411 124.097 200.79 123.165 200.169C116.127 195.512 109.607 190.233 103.293 184.644C97.704 179.676 91.701 175.226 85.5945 170.671C84.663 169.947 83.7315 169.223 82.9035 168.498C81.4545 167.256 80.0055 165.911 78.5565 164.669C77.7285 163.944 76.9005 163.22 76.176 162.288C77.7285 161.977 79.074 161.46 80.6265 162.702C82.593 164.254 84.5595 165.911 86.526 167.463C89.631 169.947 92.736 172.431 95.841 174.915C98.6355 177.089 101.327 179.262 104.121 181.539C105.053 182.264 105.881 182.988 106.812 183.713C112.712 188.474 118.715 193.338 124.614 198.099C126.063 199.445 127.409 200.687 128.961 201.929Z" fill="#FFD464"/>
<path d="M117.887 169.223L116.231 171.189C116.127 171.086 116.127 171.086 116.024 170.982C114.782 170.051 113.54 169.223 112.401 168.188C111.263 167.049 110.124 167.049 108.675 167.36C104.639 168.395 100.706 169.326 96.669 170.258C96.255 170.361 95.9445 170.465 95.5305 170.568C95.634 170.775 95.634 170.982 95.7375 171.086C96.3585 171.603 97.083 172.121 97.704 172.742L95.9445 175.019C92.8395 172.535 89.7345 170.051 86.6295 167.567L88.4925 165.29C89.424 166.014 90.459 165.911 91.8045 165.6C95.3235 164.669 98.946 163.841 102.465 163.013C103.19 162.806 104.018 162.702 105.053 162.599C102.879 160.839 101.016 159.287 99.153 157.838L100.706 155.664C102.983 157.32 105.156 159.08 107.33 160.839C109.71 162.806 112.298 164.565 114.782 166.532C115.713 167.567 116.748 168.395 117.887 169.223Z" fill="black"/>
<path d="M116.231 171.292C116.438 171.499 116.645 171.706 117.059 172.12C115.713 172.224 114.678 172.431 113.747 172.431C113.022 172.534 112.194 172.431 111.47 172.431C110.952 172.431 110.435 172.327 110.021 173.052C109.917 173.259 109.4 173.362 109.089 173.362C106.398 173.776 103.604 174.294 100.913 174.708C100.602 174.811 100.085 174.708 99.774 174.501C99.0495 173.983 98.4285 173.466 97.704 172.948C97.083 172.431 96.3585 171.913 95.7375 171.292C95.634 171.189 95.634 171.085 95.5305 170.775C95.9445 170.671 96.3585 170.464 96.669 170.464C100.706 169.533 104.742 168.601 108.675 167.566C110.124 167.152 111.263 167.256 112.401 168.394C113.436 169.429 114.782 170.257 116.024 171.189C116.127 171.085 116.127 171.189 116.231 171.292Z" fill="#009FD1"/>
<path d="M105.053 162.599C103.914 162.806 103.19 162.909 102.465 163.013C98.946 163.841 95.3235 164.669 91.8045 165.6C90.5625 165.911 89.5275 166.014 88.4925 165.29C88.2855 165.186 88.182 164.979 87.975 164.772C87.0435 163.737 85.8015 162.909 84.5595 161.771C85.1805 161.564 85.5945 161.46 85.905 161.357C89.9415 160.218 93.8745 158.976 97.911 157.838C98.325 157.734 98.946 157.631 99.153 157.838C101.016 159.39 102.879 160.839 105.053 162.599Z" fill="#009FD1"/>
<path d="M100.706 155.767L99.153 157.941C98.946 157.734 98.325 157.838 97.911 157.941C93.8745 159.08 89.9415 160.321 85.905 161.46C85.491 161.563 85.1805 161.667 84.5595 161.874C85.8015 163.012 87.0435 163.84 87.975 164.875C88.182 165.082 88.2855 165.186 88.4925 165.393L86.6295 167.67C84.663 166.117 82.6965 164.565 80.73 162.909C79.1775 161.667 77.832 162.184 76.2795 162.495C77.004 163.426 77.832 164.151 78.66 164.875C80.109 166.117 81.558 167.463 83.007 168.705L81.4545 170.568C80.8335 170.05 80.2125 169.429 79.488 168.912C78.3495 167.98 77.211 167.049 76.176 166.117C75.141 165.082 74.106 164.047 73.1745 163.012C71.829 161.46 72.036 159.804 72.864 158.251C74.0025 156.181 75.2445 154.111 76.59 152.041C77.1075 151.317 77.832 150.593 78.66 150.179C81.4545 148.523 84.663 147.902 87.8715 147.798C88.4925 147.798 89.217 148.005 89.7345 148.419C93.4605 150.696 97.1865 153.18 100.706 155.767ZM93.357 153.697C92.0115 152.766 90.9765 151.834 89.7345 151.11C89.217 150.799 88.4925 150.696 87.8715 150.799C86.319 151.11 85.077 151.938 84.1455 153.387C83.628 154.215 82.9035 154.939 82.2825 155.767C81.972 156.181 81.765 156.802 81.4545 157.216C81.558 157.32 81.6615 157.424 81.765 157.424C85.5945 156.182 89.424 154.939 93.357 153.697ZM82.2825 151.421C82.2825 151.317 82.2825 151.213 82.2825 151.11C80.109 151.42 76.6935 155.561 76.383 158.459C77.1075 158.355 77.9355 158.665 78.3495 157.734C79.1775 155.353 80.6265 153.387 82.2825 151.421Z" fill="black"/>
<path d="M89.7345 151.11C90.9765 151.834 92.0115 152.662 93.357 153.697C89.424 155.043 85.5945 156.285 81.8685 157.423C81.765 157.32 81.6615 157.216 81.558 157.216C81.765 156.699 82.0755 156.181 82.386 155.767C83.007 154.939 83.7315 154.215 84.249 153.387C85.077 151.938 86.319 151.11 87.975 150.799C88.4925 150.696 89.217 150.799 89.7345 151.11Z" fill="#009FD1"/>
<path d="M82.2825 151.214C82.2825 151.317 82.2825 151.42 82.2825 151.524C80.6265 153.387 79.1775 155.457 78.246 157.837C77.832 158.769 77.004 158.458 76.2795 158.562C76.6935 155.664 80.109 151.421 82.2825 151.214Z" fill="#FFD464"/>
<path d="M62.3784 144.041C66.1517 140.98 66.7295 135.44 63.669 131.667C60.6085 127.894 55.0686 127.316 51.2953 130.376C47.522 133.437 46.9442 138.977 50.0047 142.75C53.0652 146.523 58.6051 147.101 62.3784 144.041Z" fill="black"/>
<path fill-rule="evenodd" clip-rule="evenodd" d="M101.74 105.156C101.74 106.709 100.498 107.951 98.946 107.951C97.3935 107.951 96.1515 106.709 96.1515 105.156C96.1515 103.604 97.3935 102.362 98.946 102.362C100.498 102.362 101.74 103.604 101.74 105.156Z" fill="black"/>
<path fill-rule="evenodd" clip-rule="evenodd" d="M101.74 92.2185C101.74 93.771 100.498 95.013 98.946 95.013C97.3935 95.013 96.1515 93.771 96.1515 92.2185C96.1515 90.666 97.3935 89.424 98.946 89.424C100.498 89.424 101.74 90.666 101.74 92.2185Z" fill="black"/>
<path fill-rule="evenodd" clip-rule="evenodd" d="M101.74 79.281C101.74 80.8335 100.498 82.0755 98.946 82.0755C97.3935 82.0755 96.1515 80.8335 96.1515 79.281C96.1515 77.7285 97.3935 76.4865 98.946 76.4865C100.498 76.4865 101.74 77.7285 101.74 79.281Z" fill="black"/>
<path fill-rule="evenodd" clip-rule="evenodd" d="M101.74 66.3435C101.74 67.896 100.498 69.138 98.946 69.138C97.3935 69.138 96.1515 67.896 96.1515 66.3435C96.1515 64.791 97.3935 63.549 98.946 63.549C100.498 63.549 101.74 64.791 101.74 66.3435Z" fill="black"/>
<path fill-rule="evenodd" clip-rule="evenodd" d="M101.74 53.406C101.74 54.9585 100.498 56.2005 98.946 56.2005C97.3935 56.2005 96.1515 54.9585 96.1515 53.406C96.1515 51.8535 97.3935 50.6115 98.946 50.6115C100.498 50.6115 101.74 51.8535 101.74 53.406Z" fill="black"/>
<path fill-rule="evenodd" clip-rule="evenodd" d="M101.74 40.4685C101.74 42.021 100.498 43.263 98.946 43.263C97.3935 43.263 96.1515 42.021 96.1515 40.4685C96.1515 38.916 97.3935 37.674 98.946 37.674C100.498 37.674 101.74 38.916 101.74 40.4685Z" fill="black"/>
<path fill-rule="evenodd" clip-rule="evenodd" d="M101.74 27.531C101.74 29.0835 100.498 30.3255 98.946 30.3255C97.3935 30.3255 96.1515 29.0835 96.1515 27.531C96.1515 25.9785 97.3935 24.7365 98.946 24.7365C100.498 24.7365 101.74 25.9785 101.74 27.531Z" fill="black"/>
<path fill-rule="evenodd" clip-rule="evenodd" d="M300.978 150.8C300.978 152.352 299.736 153.594 298.184 153.594C296.631 153.594 295.389 152.352 295.389 150.8C295.389 149.247 296.631 148.005 298.184 148.005C299.736 148.005 300.978 149.247 300.978 150.8Z" fill="black"/>
<path fill-rule="evenodd" clip-rule="evenodd" d="M300.978 137.862C300.978 139.415 299.736 140.657 298.184 140.657C296.631 140.657 295.389 139.415 295.389 137.862C295.389 136.31 296.631 135.068 298.184 135.068C299.736 135.068 300.978 136.31 300.978 137.862Z" fill="black"/>
<path fill-rule="evenodd" clip-rule="evenodd" d="M300.978 124.925C300.978 126.477 299.736 127.719 298.184 127.719C296.631 127.719 295.389 126.477 295.389 124.925C295.389 123.372 296.631 122.13 298.184 122.13C299.736 122.13 300.978 123.372 300.978 124.925Z" fill="black"/>
<path fill-rule="evenodd" clip-rule="evenodd" d="M300.978 111.987C300.978 113.54 299.736 114.782 298.184 114.782C296.631 114.782 295.389 113.54 295.389 111.987C295.389 110.435 296.631 109.193 298.184 109.193C299.736 109.193 300.978 110.435 300.978 111.987Z" fill="black"/>
<path fill-rule="evenodd" clip-rule="evenodd" d="M323.541 94.392C323.541 98.532 320.229 101.844 316.089 101.844C311.949 101.844 308.637 98.532 308.637 94.392C308.637 90.252 311.949 86.94 316.089 86.94C320.229 86.94 323.541 90.3555 323.541 94.392Z" fill="black"/>
<path d="M178.227 158.769C177.813 158.459 177.192 158.355 176.674 158.252C175.95 158.148 175.329 158.252 174.604 158.355C170.154 159.08 165.91 160.218 162.495 162.392C157.63 165.083 153.387 167.877 150.282 171.81C150.075 172.121 149.868 172.431 149.764 172.742L147.694 172.535C147.798 171.189 148.315 169.844 149.04 168.602C151.834 163.944 155.871 160.736 160.735 158.355C162.184 157.631 163.737 157.01 165.289 156.492C169.222 154.94 173.362 154.94 177.502 155.25C178.537 155.354 179.572 155.664 180.607 155.871C181.746 156.182 182.677 157.01 183.402 158.045C183.919 158.873 184.437 159.701 185.058 160.425C186.921 162.495 187.335 164.979 187.024 167.67C186.921 168.291 186.714 168.912 186.403 169.43C185.782 170.568 185.058 171.707 184.333 172.845C183.816 173.57 183.298 174.294 182.781 174.915C179.158 178.745 175.018 181.746 170.05 183.713C167.877 184.541 165.807 185.576 163.633 186.093C161.356 186.611 158.976 186.921 156.699 186.404L157.113 184.334C157.527 184.437 158.044 184.437 158.562 184.437C159.804 184.334 161.149 184.334 162.391 184.023C167.152 182.781 171.81 180.918 175.95 178.02C179.158 175.847 181.539 173.052 183.195 169.533C183.919 167.981 184.126 166.325 183.712 164.255C183.609 164.462 183.505 164.565 183.505 164.772L181.228 163.944C182.056 162.702 181.849 161.667 180.711 160.632C179.779 160.011 179.055 159.287 178.227 158.769Z" fill="black"/>
<path d="M176.674 158.252C177.192 158.252 177.813 158.459 178.227 158.769C179.055 159.39 179.883 160.115 180.607 160.839C181.642 161.874 181.953 162.909 181.125 164.151C179.469 166.739 177.916 169.326 175.329 171.086C173.88 172.017 172.534 173.156 170.982 174.087C167.256 176.364 163.116 177.917 158.665 178.434C155.457 178.745 152.559 177.917 150.489 175.019C150.282 174.605 149.971 174.191 149.868 173.777C149.764 173.466 149.764 173.156 149.764 172.845C149.868 172.535 149.971 172.224 150.282 171.914C153.49 167.877 157.63 165.186 162.495 162.495C165.807 160.218 170.154 159.08 174.604 158.459C175.225 158.252 175.95 158.148 176.674 158.252Z" fill="#FFD464"/>
<path d="M183.091 169.74C181.435 173.259 179.055 175.95 175.846 178.227C171.706 181.022 167.152 182.885 162.288 184.23C161.046 184.541 159.7 184.541 158.458 184.644C157.941 184.748 157.423 184.644 157.009 184.541C155.664 184.23 154.836 183.195 153.904 181.85C154.215 181.85 154.422 181.746 154.525 181.85C158.355 182.471 161.874 181.643 165.496 180.297C169.74 178.745 173.466 176.364 176.881 173.466C177.295 173.156 177.71 172.845 178.124 172.535C179.78 171.293 181.022 169.947 181.746 167.981C182.16 166.946 182.678 166.014 183.299 164.876C183.402 164.669 183.506 164.565 183.506 164.358C183.92 166.532 183.816 168.188 183.091 169.74Z" fill="#009FD1"/>
<path d="M178.123 172.638C177.709 172.949 177.295 173.259 176.881 173.57C173.466 176.467 169.74 178.848 165.496 180.4C161.977 181.642 158.355 182.47 154.525 181.953C154.318 181.953 154.215 181.953 153.904 181.953C154.732 183.195 155.664 184.23 157.009 184.644L156.595 186.714C156.078 186.61 155.56 186.507 155.043 186.3C154.629 186.093 154.111 186.093 153.697 185.989C152.869 185.782 152.145 185.368 151.731 184.54C151.213 183.609 150.696 182.677 150.178 181.746C148.833 179.78 147.901 177.71 147.591 175.226C147.487 174.294 147.487 173.466 147.591 172.638L149.661 172.845C149.557 173.156 149.661 173.466 149.764 173.776C149.971 174.19 150.178 174.605 150.385 175.019C152.352 177.813 155.353 178.744 158.562 178.434C162.909 177.916 167.049 176.364 170.878 174.087C172.327 173.156 173.776 172.017 175.225 171.086C177.813 169.326 179.469 166.739 181.021 164.151L183.298 164.979C182.677 166.118 182.16 167.049 181.746 168.084C181.125 169.947 179.779 171.396 178.123 172.638Z" fill="black"/>
<path d="M119.956 146.763C120.267 146.349 120.577 146.142 121.198 146.142C124.821 146.245 128.236 147.488 131.859 149.04C134.55 149.972 137.034 151.938 139.414 154.215C139.725 154.526 140.139 154.94 140.346 155.354C140.553 155.664 140.76 156.078 140.76 156.492C140.76 157.217 140.656 158.045 140.656 158.769C140.553 159.804 140.035 160.425 139 160.529C136.827 160.736 134.653 160.943 132.583 160.115C131.445 159.701 130.203 159.39 129.064 158.873C126.166 157.734 123.475 156.078 121.302 153.698C119.749 152.042 119.025 149.972 119.749 147.591C119.646 147.384 119.749 147.074 119.956 146.763Z" fill="#FFD464"/>
<path d="M117.369 152.973C118.611 155.457 120.681 157.113 122.958 158.562C125.649 160.322 128.65 161.46 131.755 162.185C132.066 162.288 132.48 162.392 132.79 162.495C134.136 162.909 135.585 163.013 136.93 162.599C137.758 162.392 138.586 162.288 139.725 162.081C138.69 163.22 137.758 163.841 136.516 164.048C133.825 164.565 131.238 164.358 128.547 163.53C125.131 162.392 122.13 160.529 119.335 158.355C118.611 157.838 118.093 157.01 117.472 156.389C116.437 155.25 116.644 154.008 117.162 152.663C117.162 152.766 117.265 152.87 117.369 152.973Z" fill="#009FD1"/>
<path d="M122.751 162.702C121.302 161.874 119.853 161.15 118.611 160.011C117.059 158.666 115.61 157.217 115.092 155.147C114.989 154.836 114.782 154.526 114.678 154.215C114.471 153.594 114.368 153.077 114.678 152.456C114.989 151.731 115.299 151.11 115.61 150.386C116.127 148.833 116.955 147.281 118.197 146.142C119.439 145.004 120.785 144.279 122.544 144.176C126.374 143.762 129.996 144.693 133.412 146.453C134.447 146.97 135.482 147.591 136.517 148.212C139.104 149.868 140.864 152.145 142.52 154.733C142.934 155.354 143.244 156.078 143.451 156.803C143.762 157.631 143.658 158.459 143.348 159.287C143.141 159.908 142.83 160.632 142.727 161.253C142.313 163.22 141.071 164.462 139.415 165.497C139.001 165.704 138.587 165.807 138.173 165.911C137.241 166.014 136.31 166.118 135.275 166.221C134.654 166.221 134.033 166.325 133.412 166.221C129.582 165.704 126.063 164.669 122.751 162.702ZM122.855 158.562C120.578 157.113 118.611 155.354 117.266 152.973C117.266 152.87 117.162 152.766 116.955 152.559C116.438 153.905 116.231 155.147 117.266 156.285C117.887 156.906 118.404 157.734 119.129 158.252C121.923 160.425 124.925 162.288 128.34 163.427C130.928 164.358 133.619 164.565 136.31 163.944C137.552 163.737 138.483 163.013 139.518 161.978C138.483 162.185 137.552 162.288 136.724 162.495C135.275 162.909 133.929 162.702 132.584 162.392C132.273 162.288 131.859 162.185 131.549 162.081C128.547 161.46 125.649 160.322 122.855 158.562ZM131.859 149.144C128.237 147.591 124.821 146.349 121.199 146.246C120.578 146.246 120.267 146.349 119.957 146.867C119.75 147.177 119.646 147.488 119.543 147.798C118.818 150.179 119.543 152.249 121.095 153.905C123.269 156.182 125.856 157.838 128.858 159.08C129.996 159.494 131.238 159.804 132.377 160.322C134.447 161.046 136.62 160.839 138.794 160.736C139.829 160.632 140.346 160.115 140.45 158.976C140.553 158.252 140.657 157.424 140.553 156.699C140.553 156.285 140.346 155.975 140.139 155.561C139.829 155.147 139.518 154.733 139.208 154.422C137.034 152.042 134.55 150.075 131.859 149.144Z" fill="black"/>
<path d="M180.607 160.736C179.883 160.011 179.055 159.287 178.227 158.666C177.813 158.355 177.192 158.252 176.674 158.148C175.95 158.045 175.329 158.148 174.604 158.251H174.501C174.708 163.427 170.464 168.912 167.049 172.224C164.875 174.294 162.495 176.468 159.804 178.02C163.737 177.399 167.566 175.95 170.982 173.88C172.431 172.949 173.88 171.81 175.329 170.879C177.916 169.119 179.572 166.532 181.125 163.944C181.849 162.806 181.642 161.771 180.607 160.736Z" fill="#FF8800"/>
<path d="M129.685 156.699C125.959 155.25 122.751 153.18 120.577 150.179C120.06 149.868 119.646 149.454 119.232 149.144C119.128 150.903 119.749 152.559 121.095 153.905C123.268 156.182 125.856 157.838 128.857 159.08C129.996 159.494 131.238 159.804 132.376 160.322C134.446 161.046 136.62 160.839 138.793 160.736C139.828 160.632 140.346 160.115 140.449 158.976C140.449 158.873 140.449 158.873 140.449 158.769C136.62 158.666 132.376 157.631 129.685 156.699Z" fill="#FF8800"/>
<path d="M337.928 147.591C336.375 147.591 335.03 146.349 335.03 144.693V110.745C335.03 109.192 336.272 107.847 337.928 107.847C339.48 107.847 340.826 109.089 340.826 110.745V144.693C340.826 146.349 339.584 147.591 337.928 147.591Z" fill="black"/>
<path d="M358.006 176.571C356.454 176.571 355.109 175.329 355.109 173.673V133.929C355.109 132.377 356.351 131.031 358.006 131.031C359.559 131.031 360.905 132.273 360.905 133.929V173.673C360.905 175.329 359.559 176.571 358.006 176.571Z" fill="black"/>
<path d="M316.089 56.304C315.261 56.304 310.293 51.336 310.293 50.508C310.293 49.68 315.261 44.712 316.089 44.712C316.917 44.712 321.885 49.68 321.885 50.508C321.885 51.4395 316.917 56.304 316.089 56.304Z" fill="black"/>
<path d="M310.396 61.893C310.707 61.1685 321.575 61.1685 321.885 61.893C322.196 62.6175 316.917 67.689 316.089 67.689C315.261 67.689 310.086 62.6175 310.396 61.893Z" fill="black"/>
<path d="M312.467 73.1745C312.881 72.7605 319.298 72.7605 319.712 73.1745C320.126 73.5885 320.126 79.074 319.712 79.488C319.298 79.902 312.881 79.902 312.467 79.488C312.053 78.9705 312.053 73.5885 312.467 73.1745Z" fill="black"/>
</svg>
