<svg width="56" height="56" viewBox="0 0 56 56" fill="none" xmlns="http://www.w3.org/2000/svg">
<rect x="0.5" y="0.5" width="55" height="55" rx="13.5" fill="#323341" stroke="#4C4E62"/>
<path d="M41.7277 25.2581H40.6V25.2H28V30.8H35.9121C34.7578 34.0599 31.6561 36.4 28 36.4C23.3611 36.4 19.6 32.6389 19.6 28C19.6 23.3611 23.3611 19.6 28 19.6C30.1413 19.6 32.0894 20.4078 33.5727 21.7273L37.5326 17.7674C35.0322 15.4371 31.6876 14 28 14C20.2685 14 14 20.2685 14 28C14 35.7315 20.2685 42 28 42C35.7315 42 42 35.7315 42 28C42 27.0613 41.9034 26.145 41.7277 25.2581Z" fill="#FBC02D"/>
<path d="M15.6141 21.4837L20.2138 24.857C21.4584 21.7756 24.4726 19.6 27.9999 19.6C30.1412 19.6 32.0893 20.4078 33.5726 21.7273L37.5325 17.7674C35.0321 15.4371 31.6875 14 27.9999 14C22.6225 14 17.9591 17.0359 15.6141 21.4837Z" fill="#E53935"/>
<path d="M28 42C31.6162 42 34.902 40.6161 37.3863 38.3656L33.0533 34.699C31.6477 35.7637 29.9005 36.4 28 36.4C24.3586 36.4 21.2667 34.0781 20.1019 30.8378L15.5365 34.3553C17.8535 38.8892 22.5589 42 28 42Z" fill="#4CAF50"/>
<path d="M41.7277 25.2581L41.7165 25.2H40.6H28V30.8H35.9121C35.3577 32.3659 34.3504 33.7162 33.0512 34.6997C33.0519 34.699 33.0526 34.699 33.0533 34.6983L37.3863 38.3649C37.0797 38.6435 42 35 42 28C42 27.0613 41.9034 26.145 41.7277 25.2581Z" fill="#1565C0"/>
</svg>
