<svg width="12" height="20" viewBox="0 0 12 20" fill="none" xmlns="http://www.w3.org/2000/svg">
<path d="M0.712415 9.10386C0.592465 9.22036 0.497109 9.35975 0.431994 9.51377C0.366879 9.66779 0.333328 9.83331 0.333328 10.0005C0.333328 10.1677 0.366879 10.3333 0.431994 10.4873C0.497109 10.6413 0.592465 10.7807 0.712415 10.8972L9.71242 19.6472C9.95023 19.8784 10.2701 20.0056 10.6018 20.0009C10.9334 19.9962 11.2496 19.86 11.4807 19.6222C11.7119 19.3844 11.8392 19.0645 11.8345 18.7328C11.8298 18.4012 11.6936 18.085 11.4557 17.8539L3.35908 10.0172L11.4557 2.14719C11.5735 2.03272 11.6676 1.89618 11.7325 1.74536C11.7975 1.59455 11.8322 1.43241 11.8345 1.2682C11.8368 1.104 11.8068 0.940944 11.7461 0.78835C11.6854 0.635756 11.5952 0.496611 11.4807 0.378859C11.3663 0.261107 11.2297 0.167054 11.0789 0.102071C10.9281 0.0370879 10.766 0.00244643 10.6018 0.000124964C10.4376 -0.0021965 10.2745 0.0278472 10.1219 0.0885409C9.96931 0.149235 9.83017 0.23939 9.71242 0.353859L0.712415 9.10386Z" fill="#A4A4C0"/>
</svg>
