<svg width="12" height="20" viewBox="0 0 12 20" fill="none" xmlns="http://www.w3.org/2000/svg">
<path d="M11.1222 10.8972C11.2421 10.7807 11.3375 10.6413 11.4026 10.4873C11.4677 10.3333 11.5013 10.1677 11.5013 10.0005C11.5013 9.83331 11.4677 9.66779 11.4026 9.51377C11.3375 9.35975 11.2421 9.22036 11.1222 9.10386L2.12219 0.353859C2.00444 0.23939 1.86529 0.149235 1.7127 0.0885409C1.56011 0.0278471 1.39705 -0.0021965 1.23285 0.000124963C1.06864 0.00244643 0.906503 0.0370879 0.755686 0.102071C0.604869 0.167054 0.468327 0.261106 0.353859 0.378858C0.23939 0.49661 0.149234 0.635756 0.0885401 0.78835C0.0278464 0.940944 -0.0021965 1.104 0.000124967 1.2682C0.00244643 1.43241 0.0370879 1.59455 0.102071 1.74536C0.167054 1.89618 0.261107 2.03272 0.378859 2.14719L8.47552 9.98386L0.378859 17.8539C0.261107 17.9683 0.167054 18.1049 0.102071 18.2557C0.0370879 18.4065 0.00244643 18.5686 0.000124967 18.7328C-0.0021965 18.8971 0.0278464 19.0601 0.0885401 19.2127C0.149234 19.3653 0.23939 19.5044 0.353859 19.6222C0.468327 19.7399 0.604869 19.834 0.755686 19.899C0.906503 19.964 1.06864 19.9986 1.23285 20.0009C1.39705 20.0032 1.56011 19.9732 1.7127 19.9125C1.86529 19.8518 2.00444 19.7617 2.12219 19.6472L11.1222 10.8972Z" fill="#A4A4C0"/>
</svg>
